<svg width="35" height="22" viewBox="0 0 35 22" fill="none" xmlns="http://www.w3.org/2000/svg">
<path d="M9.5615 21.7172L9.56198 21.7167C9.73544 21.5546 9.90018 21.3825 10.0564 21.2023C10.7802 20.3675 11.3301 19.3508 11.7424 18.3084C11.8979 17.9154 12.0338 17.5186 12.1521 17.1266C12.1821 17.0275 12.213 16.9286 12.2451 16.8302C12.5585 15.8674 12.9747 14.9415 13.5057 14.1693C13.6458 13.9655 13.794 13.7724 13.9503 13.5922C14.2609 13.2341 14.6007 12.9294 14.9744 12.6911C15.5575 12.3192 16.2231 12.1087 16.9887 12.1087C17.2507 12.1087 17.5072 12.1296 17.7569 12.1696L18.2265 12.245L18.4897 11.8488C19.243 10.7148 20.3494 9.83728 21.6514 9.3726C21.7038 9.35391 21.7565 9.33589 21.8095 9.31854C22.2415 9.17712 22.694 9.08078 23.1613 9.03501C23.3677 9.01479 23.577 9.00445 23.7887 9.00445C24.5963 9.00445 25.3689 9.1551 26.0797 9.42986C26.6106 9.63504 27.107 9.90944 27.558 10.242C28.7183 11.0977 29.5773 12.3384 29.9462 13.7757L30.0961 14.3599L30.6985 14.3303C30.7599 14.3272 30.8217 14.3257 30.884 14.3257C31.1633 14.3257 31.4354 14.3567 31.6971 14.4154C33.347 14.7859 34.5796 16.2596 34.5796 18.0213C34.5796 20.0624 32.925 21.717 30.884 21.717L30.872 21.717L30.8708 21.717H23.8696L23.8652 21.717C23.8624 21.717 23.8596 21.7171 23.8568 21.7171L23.721 21.7171C23.7181 21.7171 23.7152 21.717 23.7123 21.717L23.7079 21.717H17.0342L17.0017 21.7172L9.56134 21.7173L9.56141 21.7173L9.5615 21.7172Z" fill="#ffffff"/>
<path d="M5.82784 21.7174C5.85337 21.7174 5.87884 21.7172 5.90424 21.7168L5.90953 21.7167H5.9723C7.19515 21.6959 8.15961 21.1335 8.93944 20.234C9.41139 19.6896 9.80845 19.0281 10.1367 18.3084H6.27108C4.71988 18.3084 3.46239 17.0509 3.46239 15.4998V11.7837C1.75225 12.6486 0.579773 14.4222 0.579773 16.4696C0.579773 19.3678 2.9293 21.7174 5.82758 21.7174C5.82767 21.7174 5.82775 21.7174 5.82784 21.7174Z" fill="#ffffff"/>
<path d="M4.94065 15.4998C4.94065 16.2345 5.5363 16.8302 6.27108 16.8302H10.6968C10.7104 16.7867 10.7238 16.7431 10.7369 16.6995C10.9934 15.8498 11.3327 14.978 11.7746 14.1693H7.60151V2.94344H27.558V8.49074C28.6187 9.07397 29.5297 9.89574 30.2188 10.8837V1.61301C30.2188 0.878232 29.6232 0.282578 28.8884 0.282578H6.27108C5.58222 0.282578 5.01565 0.806102 4.94751 1.47698C4.94297 1.52171 4.94065 1.56709 4.94065 1.61301V15.4998Z" fill="#ffffff"/>
<path d="M9.07976 7.70863C10.5398 6.3131 12.5187 5.45633 14.697 5.45633C17.0937 5.45633 19.2482 6.49338 20.7363 8.14322C19.4561 8.68533 18.3502 9.55788 17.5257 10.6531C17.3486 10.6381 17.1695 10.6304 16.9887 10.6304C15.2142 10.6304 13.8449 11.4576 12.8336 12.6236C12.8142 12.6459 12.7949 12.6684 12.7757 12.6911H9.07976V7.70863Z" fill="#ffffff"/>
</svg>